<svg width="184" height="37" viewBox="0 0 184 37" fill="none" xmlns="http://www.w3.org/2000/svg">
<path d="M16.5939 5.048L5.31388 5.768L3.10588 13.352C5.12188 12.84 7.04188 12.664 8.86588 12.824C10.7219 12.952 12.3699 13.416 13.8099 14.216C15.2499 15.016 16.3699 16.136 17.1699 17.576C17.9699 18.984 18.3219 20.728 18.2259 22.808C18.1299 25.144 17.5859 27.144 16.5939 28.808C15.6019 30.44 14.3539 31.8 12.8499 32.888C11.3779 33.944 9.82588 34.76 8.19388 35.336C6.56188 35.912 5.04188 36.28 3.63388 36.44C2.22588 36.6 1.12188 36.616 0.321875 36.488L0.417875 36.008C1.21788 36.04 2.19388 35.896 3.34588 35.576C4.49788 35.256 5.69788 34.76 6.94588 34.088C8.22588 33.416 9.40988 32.568 10.4979 31.544C11.6179 30.52 12.5459 29.32 13.2819 27.944C14.0499 26.536 14.4979 24.952 14.6259 23.192C14.7859 21.016 14.2739 19.272 13.0899 17.96C11.9059 16.616 10.2579 15.784 8.14588 15.464C6.06588 15.144 3.71388 15.432 1.08987 16.328L0.657875 16.136L4.40188 3.128L13.9059 2.408C14.9299 2.408 15.7299 2.184 16.3059 1.736C16.8819 1.288 17.3459 0.711999 17.6979 0.00799847H18.1779L16.5939 5.048ZM40.5001 5.048L29.2201 5.768L27.0121 13.352C29.0281 12.84 30.9481 12.664 32.7721 12.824C34.6281 12.952 36.2761 13.416 37.7161 14.216C39.1561 15.016 40.2761 16.136 41.0761 17.576C41.8761 18.984 42.2281 20.728 42.1321 22.808C42.0361 25.144 41.4921 27.144 40.5001 28.808C39.5081 30.44 38.2601 31.8 36.7561 32.888C35.2841 33.944 33.7321 34.76 32.1001 35.336C30.4681 35.912 28.9481 36.28 27.5401 36.44C26.1321 36.6 25.0281 36.616 24.2281 36.488L24.3241 36.008C25.1241 36.04 26.1001 35.896 27.2521 35.576C28.4041 35.256 29.6041 34.76 30.8521 34.088C32.1321 33.416 33.3161 32.568 34.4041 31.544C35.5241 30.52 36.4521 29.32 37.1881 27.944C37.9561 26.536 38.4041 24.952 38.5321 23.192C38.6921 21.016 38.1801 19.272 36.9961 17.96C35.8121 16.616 34.1641 15.784 32.0521 15.464C29.9721 15.144 27.6201 15.432 24.9961 16.328L24.5641 16.136L28.3081 3.128L37.8121 2.408C38.8361 2.408 39.6361 2.184 40.2121 1.736C40.7881 1.288 41.2521 0.711999 41.6041 0.00799847H42.0841L40.5001 5.048ZM73.8624 5.528L87.0624 34.712H83.2704L73.0464 9.8L73.8624 5.528ZM64.5984 31.496C64.2464 32.456 64.2944 33.208 64.7424 33.752C65.1904 34.264 65.7024 34.52 66.2784 34.52H66.6624V35H57.4944V34.52C57.4944 34.52 57.5584 34.52 57.6864 34.52C57.8144 34.52 57.8784 34.52 57.8784 34.52C58.5504 34.52 59.2384 34.296 59.9424 33.848C60.6464 33.368 61.2544 32.584 61.7664 31.496H64.5984ZM73.8624 5.528L74.1984 8.84L63.2064 34.856H60.1824L71.5584 10.472C71.5584 10.472 71.6384 10.28 71.7984 9.896C71.9904 9.512 72.1984 9.048 72.4224 8.504C72.6784 7.928 72.9024 7.368 73.0944 6.824C73.2864 6.28 73.3984 5.848 73.4304 5.528H73.8624ZM79.5264 23.816V25.256H66.8064V23.816H79.5264ZM81.9744 31.496H85.6224C86.1024 32.584 86.6944 33.368 87.3984 33.848C88.1024 34.296 88.7744 34.52 89.4144 34.52C89.4144 34.52 89.4784 34.52 89.6064 34.52C89.7344 34.52 89.7984 34.52 89.7984 34.52V35H79.9584V34.52H80.3424C80.8864 34.52 81.3824 34.264 81.8304 33.752C82.2784 33.208 82.3264 32.456 81.9744 31.496ZM94.7465 5.48L121.339 30.536L121.819 35.672L95.2265 10.472L94.7465 5.48ZM94.8425 32.024V35H91.2425V34.52C91.2425 34.52 91.3705 34.52 91.6265 34.52C91.9145 34.52 92.0585 34.52 92.0585 34.52C92.7945 34.52 93.4185 34.28 93.9305 33.8C94.4425 33.32 94.6985 32.728 94.6985 32.024H94.8425ZM96.8585 32.024C96.8585 32.728 97.1145 33.32 97.6265 33.8C98.1705 34.28 98.7945 34.52 99.4985 34.52C99.4985 34.52 99.6265 34.52 99.8825 34.52C100.171 34.52 100.315 34.52 100.315 34.52V35H96.7145V32.024H96.8585ZM94.7465 5.48L96.8105 8.168L96.8585 35H94.6985V11.48C94.6985 9.848 94.6185 8.44 94.4585 7.256C94.3305 6.072 94.2665 5.48 94.2665 5.48H94.7465ZM121.819 6.2V29.528C121.819 30.552 121.851 31.544 121.915 32.504C121.979 33.432 122.043 34.2 122.107 34.808C122.203 35.384 122.251 35.672 122.251 35.672H121.819L119.707 33.128V6.2H121.819ZM121.675 9.176V6.2H125.275V6.68C125.275 6.68 125.131 6.68 124.843 6.68C124.587 6.68 124.459 6.68 124.459 6.68C123.755 6.68 123.131 6.92 122.587 7.4C122.075 7.88 121.819 8.472 121.819 9.176H121.675ZM119.707 9.176C119.675 8.472 119.403 7.88 118.891 7.4C118.379 6.92 117.755 6.68 117.019 6.68C117.019 6.68 116.875 6.68 116.587 6.68C116.331 6.68 116.203 6.68 116.203 6.68V6.2H119.803V9.176H119.707ZM145.31 5.528C147.55 5.528 149.646 5.896 151.598 6.632C153.582 7.336 155.31 8.36 156.782 9.704C158.286 11.048 159.454 12.648 160.286 14.504C161.118 16.328 161.534 18.36 161.534 20.6C161.534 22.84 161.118 24.888 160.286 26.744C159.454 28.568 158.286 30.152 156.782 31.496C155.31 32.84 153.582 33.88 151.598 34.616C149.646 35.32 147.55 35.672 145.31 35.672C143.07 35.672 140.974 35.32 139.022 34.616C137.07 33.88 135.342 32.84 133.838 31.496C132.366 30.152 131.214 28.568 130.382 26.744C129.55 24.888 129.134 22.84 129.134 20.6C129.134 18.36 129.55 16.328 130.382 14.504C131.214 12.648 132.366 11.048 133.838 9.704C135.342 8.36 137.07 7.336 139.022 6.632C140.974 5.896 143.07 5.528 145.31 5.528ZM145.31 34.232C147.678 34.232 149.822 33.656 151.742 32.504C153.662 31.352 155.182 29.752 156.302 27.704C157.422 25.656 157.982 23.288 157.982 20.6C157.982 17.88 157.422 15.512 156.302 13.496C155.182 11.448 153.662 9.848 151.742 8.696C149.822 7.544 147.678 6.968 145.31 6.968C142.974 6.968 140.846 7.544 138.926 8.696C137.006 9.848 135.486 11.448 134.366 13.496C133.246 15.512 132.686 17.88 132.686 20.6C132.686 23.288 133.246 25.656 134.366 27.704C135.486 29.752 137.006 31.352 138.926 32.504C140.846 33.656 142.974 34.232 145.31 34.232ZM175.138 5.528C176.034 5.528 176.818 5.56 177.49 5.624C178.162 5.688 178.738 5.768 179.218 5.864C179.73 5.928 180.162 6.024 180.514 6.152C180.898 6.248 181.234 6.344 181.522 6.44L181.57 11.192H180.994C180.994 9.88 180.546 8.856 179.65 8.12C178.754 7.352 177.362 6.968 175.474 6.968C173.874 6.968 172.498 7.416 171.346 8.312C170.226 9.176 169.682 10.248 169.714 11.528C169.714 11.944 169.762 12.376 169.858 12.824C169.986 13.24 170.178 13.656 170.434 14.072C170.722 14.488 171.106 14.904 171.586 15.32L181.282 22.808C182.018 23.416 182.562 24.2 182.914 25.16C183.266 26.088 183.458 27.016 183.49 27.944C183.522 29.352 183.154 30.648 182.386 31.832C181.618 33.016 180.578 33.96 179.266 34.664C177.986 35.336 176.562 35.672 174.994 35.672C174.066 35.672 173.058 35.592 171.97 35.432C170.914 35.272 169.922 35.032 168.994 34.712C168.066 34.36 167.298 33.928 166.69 33.416C166.594 32.968 166.546 32.408 166.546 31.736C166.546 31.032 166.594 30.296 166.69 29.528C166.818 28.76 166.978 28.072 167.17 27.464H167.746C167.618 28.904 167.826 30.136 168.37 31.16C168.914 32.184 169.714 32.968 170.77 33.512C171.826 34.024 173.058 34.264 174.466 34.232C176.45 34.168 178.002 33.672 179.122 32.744C180.274 31.784 180.85 30.52 180.85 28.952C180.85 28.184 180.706 27.496 180.418 26.888C180.162 26.248 179.73 25.656 179.122 25.112L169.522 17.72C168.626 16.952 168.018 16.104 167.698 15.176C167.378 14.248 167.218 13.368 167.218 12.536C167.218 11.224 167.57 10.04 168.274 8.984C168.978 7.928 169.922 7.096 171.106 6.488C172.322 5.848 173.666 5.528 175.138 5.528ZM181.474 5.96L181.522 6.824H178.114V5.96H181.474Z" fill="#D9B166"/>
</svg>
