<svg width="603" height="74" viewBox="0 0 603 74" fill="none" xmlns="http://www.w3.org/2000/svg">
<path d="M56.6463 43.875C56.7963 48.725 56.2713 52.975 55.0713 56.625C53.9213 60.275 52.1713 63.325 49.8213 65.775C47.5213 68.175 44.6963 70 41.3463 71.25C38.0463 72.45 34.3213 73.05 30.1713 73.05C25.8213 73.05 21.8213 72.375 18.1713 71.025C14.5213 69.625 11.3463 67.7 8.64632 65.25C5.99632 62.75 3.94632 59.85 2.49632 56.55C1.04632 53.2 0.32132 49.575 0.32132 45.675C0.32132 41.775 1.04632 38.175 2.49632 34.875C3.94632 31.575 5.94632 28.7 8.49632 26.25C11.0963 23.8 14.1463 21.9 17.6463 20.55C21.1963 19.15 25.0213 18.45 29.1213 18.45C31.4213 18.45 33.7463 18.675 36.0963 19.125C38.4463 19.525 40.6713 20.1 42.7713 20.85C44.9213 21.6 46.7713 22.5 48.3213 23.55L49.8213 34.125H49.1463C48.3963 31.175 46.9963 28.725 44.9463 26.775C42.8963 24.775 40.4963 23.275 37.7463 22.275C34.9963 21.225 32.1463 20.7 29.1963 20.7C25.8463 20.7 22.7463 21.325 19.8963 22.575C17.0963 23.825 14.6463 25.575 12.5463 27.825C10.4463 30.025 8.82132 32.65 7.67132 35.7C6.52132 38.7 5.94632 41.975 5.94632 45.525C5.94632 50.225 6.97132 54.5 9.02132 58.35C11.0713 62.15 13.9463 65.175 17.6463 67.425C21.3463 69.675 25.6463 70.8 30.5463 70.8C35.4963 70.8 39.8713 69.75 43.6713 67.65C47.5213 65.5 50.5213 62.425 52.6713 58.425C54.8213 54.375 55.8963 49.525 55.8963 43.875H56.6463ZM71.818 27H81.493C83.843 27 85.943 27.275 87.793 27.825C89.693 28.375 91.293 29.175 92.593 30.225C93.943 31.275 94.968 32.55 95.668 34.05C96.368 35.55 96.718 37.25 96.718 39.15C96.718 41.25 96.218 43.2 95.218 45C94.218 46.8 92.818 48.275 91.018 49.425C89.268 50.575 87.268 51.275 85.018 51.525C85.868 51.875 86.843 52.65 87.943 53.85C89.093 55.05 90.068 56.225 90.868 57.375C90.868 57.375 91.193 57.825 91.843 58.725C92.493 59.575 93.318 60.65 94.318 61.95C95.368 63.2 96.393 64.4 97.393 65.55C98.443 66.7 99.393 67.7 100.243 68.55C101.143 69.4 102.093 70.075 103.093 70.575C104.143 71.025 105.343 71.25 106.693 71.25V72H104.368C101.618 72 99.343 71.65 97.543 70.95C95.793 70.25 94.368 69.4 93.268 68.4C92.168 67.35 91.218 66.35 90.418 65.4C90.218 65.15 89.743 64.525 88.993 63.525C88.293 62.475 87.518 61.35 86.668 60.15C85.818 58.95 85.043 57.875 84.343 56.925C83.643 55.925 83.218 55.325 83.068 55.125C82.068 53.825 80.918 52.675 79.618 51.675C78.318 50.625 76.943 50.1 75.493 50.1V49.35C75.493 49.35 75.893 49.375 76.693 49.425C77.493 49.425 78.518 49.4 79.768 49.35C81.168 49.3 82.568 49.2 83.968 49.05C85.368 48.85 86.668 48.3 87.868 47.4C89.118 46.5 90.093 45 90.793 42.9C90.993 42.35 91.143 41.7 91.243 40.95C91.343 40.2 91.368 39.425 91.318 38.625C91.268 37.225 90.993 35.975 90.493 34.875C90.043 33.775 89.368 32.825 88.468 32.025C87.618 31.225 86.593 30.6 85.393 30.15C84.193 29.7 82.843 29.45 81.343 29.4C78.993 29.3 76.943 29.275 75.193 29.325C73.443 29.375 72.568 29.375 72.568 29.325C72.568 29.275 72.493 29.075 72.343 28.725C72.243 28.325 72.118 27.95 71.968 27.6C71.868 27.2 71.818 27 71.818 27ZM72.718 27V72H67.918V27H72.718ZM68.143 67.2L69.043 72H62.668V71.25C62.668 71.25 62.843 71.25 63.193 71.25C63.543 71.25 63.718 71.25 63.718 71.25C64.918 71.25 65.918 70.85 66.718 70.05C67.518 69.25 67.943 68.3 67.993 67.2H68.143ZM68.143 31.725H67.993C67.943 30.575 67.518 29.625 66.718 28.875C65.918 28.125 64.918 27.75 63.718 27.75C63.718 27.75 63.543 27.75 63.193 27.75C62.843 27.75 62.668 27.75 62.668 27.75V27H69.043L68.143 31.725ZM72.493 67.2H72.718C72.768 68.3 73.193 69.25 73.993 70.05C74.793 70.85 75.793 71.25 76.993 71.25C76.993 71.25 77.143 71.25 77.443 71.25C77.793 71.25 77.968 71.25 77.968 71.25L78.043 72H71.593L72.493 67.2ZM120.564 27V72H115.839V27H120.564ZM116.064 67.2V72H109.689V71.25C109.689 71.25 109.864 71.25 110.214 71.25C110.564 71.25 110.739 71.25 110.739 71.25C112.139 71.25 113.314 70.85 114.264 70.05C115.264 69.25 115.789 68.3 115.839 67.2H116.064ZM120.339 67.2H120.564C120.614 68.3 121.114 69.25 122.064 70.05C123.064 70.85 124.264 71.25 125.664 71.25C125.664 71.25 125.814 71.25 126.114 71.25C126.464 71.25 126.639 71.25 126.639 71.25L126.714 72H120.339V67.2ZM120.339 31.8V27H126.714L126.639 27.75C126.639 27.75 126.464 27.75 126.114 27.75C125.814 27.75 125.664 27.75 125.664 27.75C124.264 27.75 123.064 28.15 122.064 28.95C121.114 29.7 120.614 30.65 120.564 31.8H120.339ZM116.064 31.8H115.839C115.789 30.65 115.264 29.7 114.264 28.95C113.314 28.15 112.139 27.75 110.739 27.75C110.689 27.75 110.489 27.75 110.139 27.75C109.839 27.75 109.689 27.75 109.689 27.75V27H116.064V31.8ZM148.31 25.95C149.71 25.95 150.935 26 151.985 26.1C153.035 26.2 153.935 26.325 154.685 26.475C155.485 26.575 156.16 26.725 156.71 26.925C157.31 27.075 157.835 27.225 158.285 27.375L158.36 34.8H157.46C157.46 32.75 156.76 31.15 155.36 30C153.96 28.8 151.785 28.2 148.835 28.2C146.335 28.2 144.185 28.9 142.385 30.3C140.635 31.65 139.785 33.325 139.835 35.325C139.835 35.975 139.91 36.65 140.06 37.35C140.26 38 140.56 38.65 140.96 39.3C141.41 39.95 142.01 40.6 142.76 41.25L157.91 52.95C159.06 53.9 159.91 55.125 160.46 56.625C161.01 58.075 161.31 59.525 161.36 60.975C161.41 63.175 160.835 65.2 159.635 67.05C158.435 68.9 156.81 70.375 154.76 71.475C152.76 72.525 150.535 73.05 148.085 73.05C146.635 73.05 145.06 72.925 143.36 72.675C141.71 72.425 140.16 72.05 138.71 71.55C137.26 71 136.06 70.325 135.11 69.525C134.96 68.825 134.885 67.95 134.885 66.9C134.885 65.8 134.96 64.65 135.11 63.45C135.31 62.25 135.56 61.175 135.86 60.225H136.76C136.56 62.475 136.885 64.4 137.735 66C138.585 67.6 139.835 68.825 141.485 69.675C143.135 70.475 145.06 70.85 147.26 70.8C150.36 70.7 152.785 69.925 154.535 68.475C156.335 66.975 157.235 65 157.235 62.55C157.235 61.35 157.01 60.275 156.56 59.325C156.16 58.325 155.485 57.4 154.535 56.55L139.535 45C138.135 43.8 137.185 42.475 136.685 41.025C136.185 39.575 135.935 38.2 135.935 36.9C135.935 34.85 136.485 33 137.585 31.35C138.685 29.7 140.16 28.4 142.01 27.45C143.91 26.45 146.01 25.95 148.31 25.95ZM158.21 26.625L158.285 27.975H152.96V26.625H158.21ZM189.553 27.225V72H184.678V27.225H189.553ZM207.703 26.925V29.175H166.528V26.925H207.703ZM207.703 29.025V34.2H206.878V33C206.878 31.95 206.528 31.075 205.828 30.375C205.178 29.625 204.278 29.225 203.128 29.175V29.025H207.703ZM207.703 25.725V27.675L199.303 26.925C200.303 26.925 201.353 26.875 202.453 26.775C203.603 26.625 204.653 26.45 205.603 26.25C206.553 26.05 207.253 25.875 207.703 25.725ZM184.828 67.2V72H179.353V71.25C179.403 71.25 179.553 71.25 179.803 71.25C180.103 71.25 180.253 71.25 180.253 71.25C181.453 71.25 182.478 70.85 183.328 70.05C184.178 69.25 184.628 68.3 184.678 67.2H184.828ZM189.328 67.2H189.553C189.603 68.3 190.053 69.25 190.903 70.05C191.753 70.85 192.778 71.25 193.978 71.25C193.978 71.25 194.103 71.25 194.353 71.25C194.653 71.25 194.803 71.25 194.803 71.25V72H189.328V67.2ZM171.103 29.025V29.175C169.953 29.225 169.028 29.625 168.328 30.375C167.678 31.075 167.353 31.95 167.353 33V34.2H166.528V29.025H171.103ZM166.528 25.725C166.978 25.875 167.653 26.05 168.553 26.25C169.503 26.45 170.553 26.625 171.703 26.775C172.853 26.875 173.928 26.925 174.928 26.925L166.528 27.675V25.725ZM223.763 27V72H219.038V27H223.763ZM219.263 67.2V72H212.888V71.25C212.888 71.25 213.063 71.25 213.413 71.25C213.763 71.25 213.938 71.25 213.938 71.25C215.338 71.25 216.513 70.85 217.463 70.05C218.463 69.25 218.988 68.3 219.038 67.2H219.263ZM223.538 67.2H223.763C223.813 68.3 224.313 69.25 225.263 70.05C226.263 70.85 227.463 71.25 228.863 71.25C228.863 71.25 229.013 71.25 229.313 71.25C229.663 71.25 229.838 71.25 229.838 71.25L229.913 72H223.538V67.2ZM223.538 31.8V27H229.913L229.838 27.75C229.838 27.75 229.663 27.75 229.313 27.75C229.013 27.75 228.863 27.75 228.863 27.75C227.463 27.75 226.263 28.15 225.263 28.95C224.313 29.7 223.813 30.65 223.763 31.8H223.538ZM219.263 31.8H219.038C218.988 30.65 218.463 29.7 217.463 28.95C216.513 28.15 215.338 27.75 213.938 27.75C213.888 27.75 213.688 27.75 213.338 27.75C213.038 27.75 212.888 27.75 212.888 27.75V27H219.263V31.8ZM259.158 25.95L279.783 71.55H273.858L257.883 32.625L259.158 25.95ZM244.683 66.525C244.133 68.025 244.208 69.2 244.908 70.05C245.608 70.85 246.408 71.25 247.308 71.25H247.908V72H233.583V71.25C233.583 71.25 233.683 71.25 233.883 71.25C234.083 71.25 234.183 71.25 234.183 71.25C235.233 71.25 236.308 70.9 237.408 70.2C238.508 69.45 239.458 68.225 240.258 66.525H244.683ZM259.158 25.95L259.683 31.125L242.508 71.775H237.783L255.558 33.675C255.558 33.675 255.683 33.375 255.933 32.775C256.233 32.175 256.558 31.45 256.908 30.6C257.308 29.7 257.658 28.825 257.958 27.975C258.258 27.125 258.433 26.45 258.483 25.95H259.158ZM268.008 54.525V56.775H248.133V54.525H268.008ZM271.833 66.525H277.533C278.283 68.225 279.208 69.45 280.308 70.2C281.408 70.9 282.458 71.25 283.458 71.25C283.458 71.25 283.558 71.25 283.758 71.25C283.958 71.25 284.058 71.25 284.058 71.25V72H268.683V71.25H269.283C270.133 71.25 270.908 70.85 271.608 70.05C272.308 69.2 272.383 68.025 271.833 66.525ZM291.789 25.875L333.339 65.025L334.089 73.05L292.539 33.675L291.789 25.875ZM291.939 67.35V72H286.314V71.25C286.314 71.25 286.514 71.25 286.914 71.25C287.364 71.25 287.589 71.25 287.589 71.25C288.739 71.25 289.714 70.875 290.514 70.125C291.314 69.375 291.714 68.45 291.714 67.35H291.939ZM295.089 67.35C295.089 68.45 295.489 69.375 296.289 70.125C297.139 70.875 298.114 71.25 299.214 71.25C299.214 71.25 299.414 71.25 299.814 71.25C300.264 71.25 300.489 71.25 300.489 71.25V72H294.864V67.35H295.089ZM291.789 25.875L295.014 30.075L295.089 72H291.714V35.25C291.714 32.7 291.589 30.5 291.339 28.65C291.139 26.8 291.039 25.875 291.039 25.875H291.789ZM334.089 27V63.45C334.089 65.05 334.139 66.6 334.239 68.1C334.339 69.55 334.439 70.75 334.539 71.7C334.689 72.6 334.764 73.05 334.764 73.05H334.089L330.789 69.075V27H334.089ZM333.864 31.65V27H339.489V27.75C339.489 27.75 339.264 27.75 338.814 27.75C338.414 27.75 338.214 27.75 338.214 27.75C337.114 27.75 336.139 28.125 335.289 28.875C334.489 29.625 334.089 30.55 334.089 31.65H333.864ZM330.789 31.65C330.739 30.55 330.314 29.625 329.514 28.875C328.714 28.125 327.739 27.75 326.589 27.75C326.589 27.75 326.364 27.75 325.914 27.75C325.514 27.75 325.314 27.75 325.314 27.75V27H330.939V31.65H330.789ZM388.412 73.05L365.162 19.95H371.537L389.912 65.925L388.412 73.05ZM388.412 73.05L387.737 67.8L407.837 19.725C408.587 17.925 409.462 16.125 410.462 14.325C411.462 12.525 412.662 10.825 414.062 9.225C415.462 7.575 417.062 6.125 418.862 4.875C420.712 3.625 422.837 2.675 425.237 2.025C427.687 1.325 430.437 1.025 433.487 1.125V1.875C430.387 2.025 427.712 2.675 425.462 3.825C423.212 4.925 421.287 6.375 419.687 8.175C418.137 9.925 416.812 11.825 415.712 13.875C414.612 15.875 413.612 17.825 412.712 19.725L391.862 65.325C391.862 65.325 391.712 65.65 391.412 66.3C391.162 66.9 390.837 67.65 390.437 68.55C390.087 69.45 389.762 70.325 389.462 71.175C389.212 72.025 389.087 72.65 389.087 73.05H388.412ZM373.562 24.9L367.337 24.975C366.587 23.275 365.587 22.075 364.337 21.375C363.087 20.625 361.887 20.25 360.737 20.25C360.737 20.25 360.637 20.25 360.437 20.25C360.237 20.25 360.137 20.25 360.137 20.25V19.5H377.012V20.25H376.337C375.387 20.25 374.537 20.65 373.787 21.45C373.087 22.25 373.012 23.4 373.562 24.9ZM429.72 27V72H424.995V27H429.72ZM425.22 67.2V72H418.845V71.25C418.845 71.25 419.02 71.25 419.37 71.25C419.72 71.25 419.895 71.25 419.895 71.25C421.295 71.25 422.47 70.85 423.42 70.05C424.42 69.25 424.945 68.3 424.995 67.2H425.22ZM429.495 67.2H429.72C429.77 68.3 430.27 69.25 431.22 70.05C432.22 70.85 433.42 71.25 434.82 71.25C434.82 71.25 434.97 71.25 435.27 71.25C435.62 71.25 435.795 71.25 435.795 71.25L435.87 72H429.495V67.2ZM429.495 31.8V27H435.87L435.795 27.75C435.795 27.75 435.62 27.75 435.27 27.75C434.97 27.75 434.82 27.75 434.82 27.75C433.42 27.75 432.22 28.15 431.22 28.95C430.27 29.7 429.77 30.65 429.72 31.8H429.495ZM425.22 31.8H424.995C424.945 30.65 424.42 29.7 423.42 28.95C422.47 28.15 421.295 27.75 419.895 27.75C419.845 27.75 419.645 27.75 419.295 27.75C418.995 27.75 418.845 27.75 418.845 27.75V27H425.22V31.8ZM454.24 27V72H449.44V27H454.24ZM474.415 69.675L474.265 72H454.09V69.675H474.415ZM470.89 48.375V50.625H454.09V48.375H470.89ZM474.34 27V29.325H454.09V27H474.34ZM478.615 61.275L474.49 72H463.09L465.64 69.675C468.14 69.675 470.14 69.325 471.64 68.625C473.19 67.875 474.44 66.875 475.39 65.625C476.34 64.325 477.165 62.875 477.865 61.275H478.615ZM470.89 50.475V54.75H470.065V53.775C470.065 52.925 469.815 52.2 469.315 51.6C468.815 50.95 468.04 50.625 466.99 50.625V50.475H470.89ZM470.89 44.25V48.525H466.99V48.375C468.04 48.375 468.815 48.075 469.315 47.475C469.815 46.825 470.065 46.075 470.065 45.225V44.25H470.89ZM474.34 29.1V34.275H473.515V33.15C473.515 32.1 473.165 31.2 472.465 30.45C471.815 29.7 470.915 29.325 469.765 29.325V29.1H474.34ZM474.34 25.8V27.75L465.79 27C467.34 27 468.99 26.875 470.74 26.625C472.49 26.325 473.69 26.05 474.34 25.8ZM449.59 67.2L450.565 72H444.04V71.25C444.04 71.25 444.215 71.25 444.565 71.25C444.915 71.25 445.09 71.25 445.09 71.25C446.34 71.25 447.365 70.85 448.165 70.05C448.965 69.25 449.39 68.3 449.44 67.2H449.59ZM449.59 31.725H449.44C449.39 30.575 448.965 29.625 448.165 28.875C447.365 28.125 446.34 27.75 445.09 27.75C445.09 27.75 444.915 27.75 444.565 27.75C444.215 27.75 444.04 27.75 444.04 27.75V27H450.565L449.59 31.725ZM495.125 27V72H490.4V27H495.125ZM490.625 67.2V72H484.25V71.25C484.25 71.25 484.425 71.25 484.775 71.25C485.125 71.25 485.3 71.25 485.3 71.25C486.7 71.25 487.875 70.85 488.825 70.05C489.825 69.25 490.35 68.3 490.4 67.2H490.625ZM494.9 67.2H495.125C495.175 68.3 495.675 69.25 496.625 70.05C497.625 70.85 498.825 71.25 500.225 71.25C500.225 71.25 500.375 71.25 500.675 71.25C501.025 71.25 501.2 71.25 501.2 71.25L501.275 72H494.9V67.2ZM494.9 31.8V27H501.275L501.2 27.75C501.2 27.75 501.025 27.75 500.675 27.75C500.375 27.75 500.225 27.75 500.225 27.75C498.825 27.75 497.625 28.15 496.625 28.95C495.675 29.7 495.175 30.65 495.125 31.8H494.9ZM490.625 31.8H490.4C490.35 30.65 489.825 29.7 488.825 28.95C487.875 28.15 486.7 27.75 485.3 27.75C485.25 27.75 485.05 27.75 484.7 27.75C484.4 27.75 484.25 27.75 484.25 27.75V27H490.625V31.8ZM518.595 27H528.27C530.62 27 532.72 27.275 534.57 27.825C536.47 28.375 538.07 29.175 539.37 30.225C540.72 31.275 541.745 32.55 542.445 34.05C543.145 35.55 543.495 37.25 543.495 39.15C543.495 41.25 542.995 43.2 541.995 45C540.995 46.8 539.595 48.275 537.795 49.425C536.045 50.575 534.045 51.275 531.795 51.525C532.645 51.875 533.62 52.65 534.72 53.85C535.87 55.05 536.845 56.225 537.645 57.375C537.645 57.375 537.97 57.825 538.62 58.725C539.27 59.575 540.095 60.65 541.095 61.95C542.145 63.2 543.17 64.4 544.17 65.55C545.22 66.7 546.17 67.7 547.02 68.55C547.92 69.4 548.87 70.075 549.87 70.575C550.92 71.025 552.12 71.25 553.47 71.25V72H551.145C548.395 72 546.12 71.65 544.32 70.95C542.57 70.25 541.145 69.4 540.045 68.4C538.945 67.35 537.995 66.35 537.195 65.4C536.995 65.15 536.52 64.525 535.77 63.525C535.07 62.475 534.295 61.35 533.445 60.15C532.595 58.95 531.82 57.875 531.12 56.925C530.42 55.925 529.995 55.325 529.845 55.125C528.845 53.825 527.695 52.675 526.395 51.675C525.095 50.625 523.72 50.1 522.27 50.1V49.35C522.27 49.35 522.67 49.375 523.47 49.425C524.27 49.425 525.295 49.4 526.545 49.35C527.945 49.3 529.345 49.2 530.745 49.05C532.145 48.85 533.445 48.3 534.645 47.4C535.895 46.5 536.87 45 537.57 42.9C537.77 42.35 537.92 41.7 538.02 40.95C538.12 40.2 538.145 39.425 538.095 38.625C538.045 37.225 537.77 35.975 537.27 34.875C536.82 33.775 536.145 32.825 535.245 32.025C534.395 31.225 533.37 30.6 532.17 30.15C530.97 29.7 529.62 29.45 528.12 29.4C525.77 29.3 523.72 29.275 521.97 29.325C520.22 29.375 519.345 29.375 519.345 29.325C519.345 29.275 519.27 29.075 519.12 28.725C519.02 28.325 518.895 27.95 518.745 27.6C518.645 27.2 518.595 27 518.595 27ZM519.495 27V72H514.695V27H519.495ZM514.92 67.2L515.82 72H509.445V71.25C509.445 71.25 509.62 71.25 509.97 71.25C510.32 71.25 510.495 71.25 510.495 71.25C511.695 71.25 512.695 70.85 513.495 70.05C514.295 69.25 514.72 68.3 514.77 67.2H514.92ZM514.92 31.725H514.77C514.72 30.575 514.295 29.625 513.495 28.875C512.695 28.125 511.695 27.75 510.495 27.75C510.495 27.75 510.32 27.75 509.97 27.75C509.62 27.75 509.445 27.75 509.445 27.75V27H515.82L514.92 31.725ZM519.27 67.2H519.495C519.545 68.3 519.97 69.25 520.77 70.05C521.57 70.85 522.57 71.25 523.77 71.25C523.77 71.25 523.92 71.25 524.22 71.25C524.57 71.25 524.745 71.25 524.745 71.25L524.82 72H518.37L519.27 67.2ZM577.542 25.95L598.167 71.55H592.242L576.267 32.625L577.542 25.95ZM563.067 66.525C562.517 68.025 562.592 69.2 563.292 70.05C563.992 70.85 564.792 71.25 565.692 71.25H566.292V72H551.967V71.25C551.967 71.25 552.067 71.25 552.267 71.25C552.467 71.25 552.567 71.25 552.567 71.25C553.617 71.25 554.692 70.9 555.792 70.2C556.892 69.45 557.842 68.225 558.642 66.525H563.067ZM577.542 25.95L578.067 31.125L560.892 71.775H556.167L573.942 33.675C573.942 33.675 574.067 33.375 574.317 32.775C574.617 32.175 574.942 31.45 575.292 30.6C575.692 29.7 576.042 28.825 576.342 27.975C576.642 27.125 576.817 26.45 576.867 25.95H577.542ZM586.392 54.525V56.775H566.517V54.525H586.392ZM590.217 66.525H595.917C596.667 68.225 597.592 69.45 598.692 70.2C599.792 70.9 600.842 71.25 601.842 71.25C601.842 71.25 601.942 71.25 602.142 71.25C602.342 71.25 602.442 71.25 602.442 71.25V72H587.067V71.25H587.667C588.517 71.25 589.292 70.85 589.992 70.05C590.692 69.2 590.767 68.025 590.217 66.525Z" fill="#D9B166"/>
</svg>
