<svg width="36" height="36" viewBox="0 0 36 36" fill="none" xmlns="http://www.w3.org/2000/svg">
<path d="M32.9999 16.59C32.8683 16.5908 32.7379 16.5656 32.616 16.5158C32.4942 16.466 32.3834 16.3927 32.2899 16.3L19.6999 3.71003C19.5361 3.51873 19.4505 3.27265 19.4602 3.02097C19.4699 2.7693 19.5743 2.53056 19.7524 2.35246C19.9305 2.17437 20.1692 2.07004 20.4209 2.06032C20.6726 2.05059 20.9186 2.1362 21.1099 2.30003L33.7099 14.89C33.8475 15.0304 33.9407 15.2082 33.9778 15.4013C34.0149 15.5943 33.9943 15.794 33.9186 15.9754C33.8428 16.1568 33.7153 16.3119 33.5519 16.4212C33.3885 16.5305 33.1965 16.5892 32.9999 16.59Z" fill="#D9B166"/>
<path d="M28.52 15.56L27.11 14.15L19.91 21.35C19.7814 21.4783 19.6902 21.6391 19.6462 21.8153C19.6022 21.9915 19.6069 22.1763 19.66 22.35C20.0669 23.7229 20.1404 25.1732 19.8743 26.5802C19.6082 27.9872 19.0102 29.3105 18.13 30.44L5.57997 17.87C6.70948 16.9897 8.03271 16.3917 9.43976 16.1256C10.8468 15.8595 12.297 15.933 13.67 16.34C13.8436 16.393 14.0285 16.3978 14.2047 16.3538C14.3808 16.3097 14.5417 16.2185 14.67 16.09L21.87 8.88998L20.44 7.47998L13.65 14.27C11.8424 13.8342 9.95368 13.8662 8.16199 14.3632C6.3703 14.8601 4.73482 15.8054 3.40997 17.11C3.31624 17.2029 3.24185 17.3135 3.19108 17.4354C3.14031 17.5573 3.11418 17.688 3.11418 17.82C3.11418 17.952 3.14031 18.0827 3.19108 18.2046C3.24185 18.3264 3.31624 18.437 3.40997 18.53L9.73997 24.86L2.28997 32.29C2.18529 32.3796 2.10027 32.4899 2.04025 32.614C1.98022 32.7381 1.94649 32.8732 1.94117 33.0109C1.93586 33.1486 1.95906 33.286 2.00934 33.4143C2.05961 33.5426 2.13587 33.6592 2.23332 33.7566C2.33078 33.8541 2.44733 33.9303 2.57565 33.9806C2.70398 34.0309 2.84131 34.0541 2.97903 34.0488C3.11675 34.0435 3.25188 34.0097 3.37594 33.9497C3.50001 33.8897 3.61033 33.8047 3.69997 33.7L11.14 26.26L17.47 32.59C17.5634 32.6827 17.6742 32.756 17.7961 32.8058C17.9179 32.8555 18.0484 32.8807 18.18 32.88C18.3123 32.8794 18.4432 32.8526 18.565 32.8011C18.6869 32.7496 18.7974 32.6745 18.89 32.58C20.1897 31.252 21.1319 29.6163 21.6285 27.8257C22.1251 26.035 22.16 24.1478 21.73 22.34L28.52 15.56Z" fill="#D9B166"/>
</svg>
